<mxfile host="app.diagrams.net" agent="Mozilla/5.0 (Windows NT 10.0; Win64; x64) AppleWebKit/537.36 (KHTML, like Gecko) Chrome/135.0.0.0 Safari/537.36" version="27.0.5">
  <diagram name="Página-1" id="jhwGK72Uflygwgd_BXQ4">
    <mxGraphModel dx="2275" dy="-215" grid="1" gridSize="10" guides="1" tooltips="1" connect="1" arrows="1" fold="1" page="1" pageScale="1" pageWidth="690" pageHeight="980" math="0" shadow="0">
      <root>
        <mxCell id="iF3ojP-lR2Myyg0GKmRt-0" />
        <mxCell id="iF3ojP-lR2Myyg0GKmRt-1" parent="iF3ojP-lR2Myyg0GKmRt-0" />
        <mxCell id="WLotTtnnPKLYBUlWbRt3-0" value="ADMINISTRADOR" style="swimlane;whiteSpace=wrap;html=1;" vertex="1" parent="iF3ojP-lR2Myyg0GKmRt-1">
          <mxGeometry x="160" y="1200" width="840" height="1315" as="geometry" />
        </mxCell>
        <mxCell id="WLotTtnnPKLYBUlWbRt3-6" value="Iniciar sesión&lt;span style=&quot;color: rgba(0, 0, 0, 0); font-family: monospace; font-size: 0px; text-align: start; text-wrap-mode: nowrap;&quot;&gt;%3CmxGraphModel%3E%3Croot%3E%3CmxCell%20id%3D%220%22%2F%3E%3CmxCell%20id%3D%221%22%20parent%3D%220%22%2F%3E%3CmxCell%20id%3D%222%22%20value%3D%22Eliminar%22%20style%3D%22ellipse%3BwhiteSpace%3Dwrap%3Bhtml%3D1%3B%22%20vertex%3D%221%22%20parent%3D%221%22%3E%3CmxGeometry%20x%3D%22600%22%20y%3D%221279%22%20width%3D%22120%22%20height%3D%2280%22%20as%3D%22geometry%22%2F%3E%3C%2FmxCell%3E%3C%2Froot%3E%3C%2FmxGraphModel%3E&lt;/span&gt;" style="ellipse;whiteSpace=wrap;html=1;" vertex="1" parent="WLotTtnnPKLYBUlWbRt3-0">
          <mxGeometry x="60" y="1161" width="120" height="80" as="geometry" />
        </mxCell>
        <mxCell id="WLotTtnnPKLYBUlWbRt3-7" value="Servicios" style="ellipse;whiteSpace=wrap;html=1;" vertex="1" parent="WLotTtnnPKLYBUlWbRt3-0">
          <mxGeometry x="60" y="80" width="120" height="80" as="geometry" />
        </mxCell>
        <mxCell id="WLotTtnnPKLYBUlWbRt3-8" value="Funciones" style="ellipse;whiteSpace=wrap;html=1;" vertex="1" parent="WLotTtnnPKLYBUlWbRt3-0">
          <mxGeometry x="60" y="636" width="120" height="80" as="geometry" />
        </mxCell>
        <mxCell id="WLotTtnnPKLYBUlWbRt3-12" value="veterinarios" style="ellipse;whiteSpace=wrap;html=1;" vertex="1" parent="WLotTtnnPKLYBUlWbRt3-0">
          <mxGeometry x="420" y="746" width="120" height="80" as="geometry" />
        </mxCell>
        <mxCell id="WLotTtnnPKLYBUlWbRt3-11" value="Usuarios" style="ellipse;whiteSpace=wrap;html=1;" vertex="1" parent="WLotTtnnPKLYBUlWbRt3-0">
          <mxGeometry x="420" y="636" width="120" height="80" as="geometry" />
        </mxCell>
        <mxCell id="WLotTtnnPKLYBUlWbRt3-10" value="Mascotas" style="ellipse;whiteSpace=wrap;html=1;" vertex="1" parent="WLotTtnnPKLYBUlWbRt3-0">
          <mxGeometry x="420" y="516" width="120" height="80" as="geometry" />
        </mxCell>
        <mxCell id="WLotTtnnPKLYBUlWbRt3-9" value="Consultar" style="ellipse;whiteSpace=wrap;html=1;" vertex="1" parent="WLotTtnnPKLYBUlWbRt3-0">
          <mxGeometry x="240" y="636" width="120" height="80" as="geometry" />
        </mxCell>
        <mxCell id="WLotTtnnPKLYBUlWbRt3-14" value="Agregar" style="ellipse;whiteSpace=wrap;html=1;" vertex="1" parent="WLotTtnnPKLYBUlWbRt3-0">
          <mxGeometry x="60" y="930" width="120" height="80" as="geometry" />
        </mxCell>
        <mxCell id="WLotTtnnPKLYBUlWbRt3-15" value="Deshabilitar" style="ellipse;whiteSpace=wrap;html=1;" vertex="1" parent="WLotTtnnPKLYBUlWbRt3-0">
          <mxGeometry x="60" y="317" width="120" height="80" as="geometry" />
        </mxCell>
        <mxCell id="WLotTtnnPKLYBUlWbRt3-17" value="Administradores" style="ellipse;whiteSpace=wrap;html=1;" vertex="1" parent="WLotTtnnPKLYBUlWbRt3-0">
          <mxGeometry x="260" y="930" width="120" height="80" as="geometry" />
        </mxCell>
        <mxCell id="WLotTtnnPKLYBUlWbRt3-16" value="Veterinarios" style="ellipse;whiteSpace=wrap;html=1;" vertex="1" parent="WLotTtnnPKLYBUlWbRt3-0">
          <mxGeometry x="260" y="1021" width="120" height="80" as="geometry" />
        </mxCell>
        <mxCell id="WLotTtnnPKLYBUlWbRt3-18" value="Usuarios" style="ellipse;whiteSpace=wrap;html=1;" vertex="1" parent="WLotTtnnPKLYBUlWbRt3-0">
          <mxGeometry x="260" y="840" width="120" height="80" as="geometry" />
        </mxCell>
        <mxCell id="WLotTtnnPKLYBUlWbRt3-22" value="Cambiar" style="ellipse;whiteSpace=wrap;html=1;" vertex="1" parent="WLotTtnnPKLYBUlWbRt3-0">
          <mxGeometry x="290" y="80" width="120" height="80" as="geometry" />
        </mxCell>
        <mxCell id="WLotTtnnPKLYBUlWbRt3-23" value="Eliminar" style="ellipse;whiteSpace=wrap;html=1;" vertex="1" parent="WLotTtnnPKLYBUlWbRt3-0">
          <mxGeometry x="500" y="80" width="120" height="80" as="geometry" />
        </mxCell>
        <mxCell id="WLotTtnnPKLYBUlWbRt3-24" value="Poner promociones" style="ellipse;whiteSpace=wrap;html=1;" vertex="1" parent="WLotTtnnPKLYBUlWbRt3-0">
          <mxGeometry x="700" y="80" width="120" height="80" as="geometry" />
        </mxCell>
        <mxCell id="WLotTtnnPKLYBUlWbRt3-21" value="Usuarios" style="ellipse;whiteSpace=wrap;html=1;" vertex="1" parent="WLotTtnnPKLYBUlWbRt3-0">
          <mxGeometry x="260" y="211" width="120" height="80" as="geometry" />
        </mxCell>
        <mxCell id="WLotTtnnPKLYBUlWbRt3-20" value="Veterinarios" style="ellipse;whiteSpace=wrap;html=1;" vertex="1" parent="WLotTtnnPKLYBUlWbRt3-0">
          <mxGeometry x="260" y="421" width="120" height="80" as="geometry" />
        </mxCell>
        <mxCell id="WLotTtnnPKLYBUlWbRt3-19" value="Administradores" style="ellipse;whiteSpace=wrap;html=1;" vertex="1" parent="WLotTtnnPKLYBUlWbRt3-0">
          <mxGeometry x="260" y="317" width="120" height="80" as="geometry" />
        </mxCell>
        <mxCell id="WLotTtnnPKLYBUlWbRt3-26" value="Permisos concedidos" style="ellipse;whiteSpace=wrap;html=1;" vertex="1" parent="WLotTtnnPKLYBUlWbRt3-0">
          <mxGeometry x="700" y="1161" width="120" height="80" as="geometry" />
        </mxCell>
        <mxCell id="WLotTtnnPKLYBUlWbRt3-25" value="Verificar credenciales" style="ellipse;whiteSpace=wrap;html=1;" vertex="1" parent="WLotTtnnPKLYBUlWbRt3-0">
          <mxGeometry x="390" y="1161" width="120" height="80" as="geometry" />
        </mxCell>
        <mxCell id="WLotTtnnPKLYBUlWbRt3-33" style="edgeStyle=orthogonalEdgeStyle;rounded=0;orthogonalLoop=1;jettySize=auto;html=1;exitX=0.5;exitY=1;exitDx=0;exitDy=0;" edge="1" parent="WLotTtnnPKLYBUlWbRt3-0" source="WLotTtnnPKLYBUlWbRt3-21" target="WLotTtnnPKLYBUlWbRt3-21">
          <mxGeometry relative="1" as="geometry" />
        </mxCell>
        <mxCell id="WLotTtnnPKLYBUlWbRt3-35" value="" style="endArrow=none;html=1;rounded=0;exitX=1;exitY=0.5;exitDx=0;exitDy=0;entryX=0;entryY=0.5;entryDx=0;entryDy=0;" edge="1" parent="WLotTtnnPKLYBUlWbRt3-0" source="WLotTtnnPKLYBUlWbRt3-15" target="WLotTtnnPKLYBUlWbRt3-19">
          <mxGeometry width="50" height="50" relative="1" as="geometry">
            <mxPoint x="520" y="281" as="sourcePoint" />
            <mxPoint x="570" y="231" as="targetPoint" />
          </mxGeometry>
        </mxCell>
        <mxCell id="WLotTtnnPKLYBUlWbRt3-36" value="" style="endArrow=none;html=1;rounded=0;exitX=1;exitY=0.5;exitDx=0;exitDy=0;entryX=0;entryY=0.5;entryDx=0;entryDy=0;" edge="1" parent="WLotTtnnPKLYBUlWbRt3-0" source="WLotTtnnPKLYBUlWbRt3-7" target="WLotTtnnPKLYBUlWbRt3-22">
          <mxGeometry width="50" height="50" relative="1" as="geometry">
            <mxPoint x="185" y="119.41000000000008" as="sourcePoint" />
            <mxPoint x="265" y="119.41000000000008" as="targetPoint" />
          </mxGeometry>
        </mxCell>
        <mxCell id="WLotTtnnPKLYBUlWbRt3-38" value="" style="endArrow=none;html=1;rounded=0;exitX=1;exitY=0.5;exitDx=0;exitDy=0;entryX=0;entryY=0.5;entryDx=0;entryDy=0;" edge="1" parent="WLotTtnnPKLYBUlWbRt3-0" source="WLotTtnnPKLYBUlWbRt3-23" target="WLotTtnnPKLYBUlWbRt3-24">
          <mxGeometry width="50" height="50" relative="1" as="geometry">
            <mxPoint x="740" y="119.41000000000008" as="sourcePoint" />
            <mxPoint x="820" y="119.41000000000008" as="targetPoint" />
          </mxGeometry>
        </mxCell>
        <mxCell id="WLotTtnnPKLYBUlWbRt3-37" value="" style="endArrow=none;html=1;rounded=0;exitX=1;exitY=0.5;exitDx=0;exitDy=0;entryX=0;entryY=0.5;entryDx=0;entryDy=0;" edge="1" parent="WLotTtnnPKLYBUlWbRt3-0" source="WLotTtnnPKLYBUlWbRt3-22" target="WLotTtnnPKLYBUlWbRt3-23">
          <mxGeometry width="50" height="50" relative="1" as="geometry">
            <mxPoint x="520" y="119.41000000000008" as="sourcePoint" />
            <mxPoint x="600" y="119" as="targetPoint" />
          </mxGeometry>
        </mxCell>
        <mxCell id="WLotTtnnPKLYBUlWbRt3-39" value="" style="endArrow=none;html=1;rounded=0;exitX=0.5;exitY=1;exitDx=0;exitDy=0;entryX=0.5;entryY=0;entryDx=0;entryDy=0;" edge="1" parent="WLotTtnnPKLYBUlWbRt3-0" source="WLotTtnnPKLYBUlWbRt3-7" target="WLotTtnnPKLYBUlWbRt3-15">
          <mxGeometry width="50" height="50" relative="1" as="geometry">
            <mxPoint x="220" y="397" as="sourcePoint" />
            <mxPoint x="300" y="397" as="targetPoint" />
          </mxGeometry>
        </mxCell>
        <mxCell id="WLotTtnnPKLYBUlWbRt3-40" value="" style="endArrow=none;html=1;rounded=0;exitX=0.5;exitY=1;exitDx=0;exitDy=0;entryX=0.5;entryY=0;entryDx=0;entryDy=0;" edge="1" parent="WLotTtnnPKLYBUlWbRt3-0" source="WLotTtnnPKLYBUlWbRt3-15" target="WLotTtnnPKLYBUlWbRt3-8">
          <mxGeometry width="50" height="50" relative="1" as="geometry">
            <mxPoint x="230" y="407" as="sourcePoint" />
            <mxPoint x="310" y="407" as="targetPoint" />
          </mxGeometry>
        </mxCell>
        <mxCell id="WLotTtnnPKLYBUlWbRt3-41" value="" style="endArrow=none;html=1;rounded=0;exitX=0.5;exitY=1;exitDx=0;exitDy=0;entryX=0.5;entryY=0;entryDx=0;entryDy=0;" edge="1" parent="WLotTtnnPKLYBUlWbRt3-0" source="WLotTtnnPKLYBUlWbRt3-8" target="WLotTtnnPKLYBUlWbRt3-14">
          <mxGeometry width="50" height="50" relative="1" as="geometry">
            <mxPoint x="240" y="417" as="sourcePoint" />
            <mxPoint x="320" y="417" as="targetPoint" />
          </mxGeometry>
        </mxCell>
        <mxCell id="WLotTtnnPKLYBUlWbRt3-42" value="" style="endArrow=none;html=1;rounded=0;exitX=1;exitY=0.5;exitDx=0;exitDy=0;entryX=0;entryY=0.5;entryDx=0;entryDy=0;" edge="1" parent="WLotTtnnPKLYBUlWbRt3-0" source="WLotTtnnPKLYBUlWbRt3-8" target="WLotTtnnPKLYBUlWbRt3-9">
          <mxGeometry width="50" height="50" relative="1" as="geometry">
            <mxPoint x="250" y="427" as="sourcePoint" />
            <mxPoint x="330" y="427" as="targetPoint" />
          </mxGeometry>
        </mxCell>
        <mxCell id="WLotTtnnPKLYBUlWbRt3-43" value="" style="endArrow=none;html=1;rounded=0;exitX=1;exitY=0.5;exitDx=0;exitDy=0;entryX=0;entryY=0.5;entryDx=0;entryDy=0;" edge="1" parent="WLotTtnnPKLYBUlWbRt3-0">
          <mxGeometry width="50" height="50" relative="1" as="geometry">
            <mxPoint x="360" y="677.4100000000001" as="sourcePoint" />
            <mxPoint x="420" y="677.4100000000001" as="targetPoint" />
          </mxGeometry>
        </mxCell>
        <mxCell id="WLotTtnnPKLYBUlWbRt3-44" value="" style="endArrow=none;html=1;rounded=0;exitX=0.5;exitY=0;exitDx=0;exitDy=0;entryX=0.5;entryY=1;entryDx=0;entryDy=0;" edge="1" parent="WLotTtnnPKLYBUlWbRt3-0" source="WLotTtnnPKLYBUlWbRt3-6" target="WLotTtnnPKLYBUlWbRt3-14">
          <mxGeometry width="50" height="50" relative="1" as="geometry">
            <mxPoint x="130" y="726" as="sourcePoint" />
            <mxPoint x="130" y="940" as="targetPoint" />
          </mxGeometry>
        </mxCell>
        <mxCell id="WLotTtnnPKLYBUlWbRt3-45" value="" style="endArrow=none;html=1;rounded=0;exitX=1;exitY=0.5;exitDx=0;exitDy=0;entryX=0;entryY=0.5;entryDx=0;entryDy=0;" edge="1" parent="WLotTtnnPKLYBUlWbRt3-0" source="WLotTtnnPKLYBUlWbRt3-14" target="WLotTtnnPKLYBUlWbRt3-17">
          <mxGeometry width="50" height="50" relative="1" as="geometry">
            <mxPoint x="130" y="1171" as="sourcePoint" />
            <mxPoint x="130" y="1020" as="targetPoint" />
          </mxGeometry>
        </mxCell>
        <mxCell id="WLotTtnnPKLYBUlWbRt3-46" value="" style="endArrow=none;html=1;rounded=0;exitX=0.5;exitY=0;exitDx=0;exitDy=0;entryX=0.5;entryY=1;entryDx=0;entryDy=0;" edge="1" parent="WLotTtnnPKLYBUlWbRt3-0" source="WLotTtnnPKLYBUlWbRt3-16" target="WLotTtnnPKLYBUlWbRt3-17">
          <mxGeometry width="50" height="50" relative="1" as="geometry">
            <mxPoint x="140" y="1181" as="sourcePoint" />
            <mxPoint x="140" y="1030" as="targetPoint" />
          </mxGeometry>
        </mxCell>
        <mxCell id="WLotTtnnPKLYBUlWbRt3-47" value="" style="endArrow=none;html=1;rounded=0;exitX=0.5;exitY=0;exitDx=0;exitDy=0;entryX=0.5;entryY=1;entryDx=0;entryDy=0;" edge="1" parent="WLotTtnnPKLYBUlWbRt3-0" source="WLotTtnnPKLYBUlWbRt3-17" target="WLotTtnnPKLYBUlWbRt3-18">
          <mxGeometry width="50" height="50" relative="1" as="geometry">
            <mxPoint x="150" y="1191" as="sourcePoint" />
            <mxPoint x="150" y="1040" as="targetPoint" />
          </mxGeometry>
        </mxCell>
        <mxCell id="WLotTtnnPKLYBUlWbRt3-48" value="" style="endArrow=none;html=1;rounded=0;exitX=1;exitY=0.5;exitDx=0;exitDy=0;entryX=0;entryY=0.5;entryDx=0;entryDy=0;" edge="1" parent="WLotTtnnPKLYBUlWbRt3-0" source="WLotTtnnPKLYBUlWbRt3-6" target="WLotTtnnPKLYBUlWbRt3-25">
          <mxGeometry width="50" height="50" relative="1" as="geometry">
            <mxPoint x="160" y="1201" as="sourcePoint" />
            <mxPoint x="160" y="1050" as="targetPoint" />
          </mxGeometry>
        </mxCell>
        <mxCell id="WLotTtnnPKLYBUlWbRt3-49" value="" style="endArrow=none;html=1;rounded=0;exitX=0;exitY=0.5;exitDx=0;exitDy=0;entryX=1;entryY=0.5;entryDx=0;entryDy=0;" edge="1" parent="WLotTtnnPKLYBUlWbRt3-0" source="WLotTtnnPKLYBUlWbRt3-26" target="WLotTtnnPKLYBUlWbRt3-25">
          <mxGeometry width="50" height="50" relative="1" as="geometry">
            <mxPoint x="190" y="1211" as="sourcePoint" />
            <mxPoint x="360" y="1211" as="targetPoint" />
          </mxGeometry>
        </mxCell>
        <mxCell id="WLotTtnnPKLYBUlWbRt3-50" value="" style="endArrow=none;html=1;rounded=0;exitX=0.5;exitY=1;exitDx=0;exitDy=0;entryX=0.5;entryY=0;entryDx=0;entryDy=0;" edge="1" parent="WLotTtnnPKLYBUlWbRt3-0" source="WLotTtnnPKLYBUlWbRt3-10" target="WLotTtnnPKLYBUlWbRt3-11">
          <mxGeometry width="50" height="50" relative="1" as="geometry">
            <mxPoint x="370" y="687.4100000000001" as="sourcePoint" />
            <mxPoint x="430" y="687.4100000000001" as="targetPoint" />
          </mxGeometry>
        </mxCell>
        <mxCell id="WLotTtnnPKLYBUlWbRt3-51" value="" style="endArrow=none;html=1;rounded=0;exitX=0.5;exitY=1;exitDx=0;exitDy=0;entryX=0.5;entryY=0;entryDx=0;entryDy=0;" edge="1" parent="WLotTtnnPKLYBUlWbRt3-0" source="WLotTtnnPKLYBUlWbRt3-11" target="WLotTtnnPKLYBUlWbRt3-12">
          <mxGeometry width="50" height="50" relative="1" as="geometry">
            <mxPoint x="490" y="606" as="sourcePoint" />
            <mxPoint x="490" y="646" as="targetPoint" />
          </mxGeometry>
        </mxCell>
        <mxCell id="WLotTtnnPKLYBUlWbRt3-59" value="" style="endArrow=none;html=1;rounded=0;exitX=0.5;exitY=1;exitDx=0;exitDy=0;entryX=0.5;entryY=0;entryDx=0;entryDy=0;" edge="1" parent="WLotTtnnPKLYBUlWbRt3-0" source="WLotTtnnPKLYBUlWbRt3-21" target="WLotTtnnPKLYBUlWbRt3-19">
          <mxGeometry width="50" height="50" relative="1" as="geometry">
            <mxPoint x="190" y="367" as="sourcePoint" />
            <mxPoint x="270" y="367" as="targetPoint" />
          </mxGeometry>
        </mxCell>
        <mxCell id="WLotTtnnPKLYBUlWbRt3-57" value="" style="edgeStyle=orthogonalEdgeStyle;rounded=0;orthogonalLoop=1;jettySize=auto;html=1;" edge="1" parent="iF3ojP-lR2Myyg0GKmRt-1" target="WLotTtnnPKLYBUlWbRt3-8">
          <mxGeometry relative="1" as="geometry">
            <mxPoint x="160" y="1876" as="sourcePoint" />
          </mxGeometry>
        </mxCell>
        <mxCell id="WLotTtnnPKLYBUlWbRt3-5" value="Administrador" style="shape=umlActor;verticalLabelPosition=bottom;verticalAlign=top;html=1;outlineConnect=0;" vertex="1" parent="iF3ojP-lR2Myyg0GKmRt-1">
          <mxGeometry x="-40" y="1766" width="180" height="220" as="geometry" />
        </mxCell>
        <mxCell id="WLotTtnnPKLYBUlWbRt3-52" value="Sistema" style="shape=umlActor;verticalLabelPosition=bottom;verticalAlign=top;html=1;outlineConnect=0;" vertex="1" parent="iF3ojP-lR2Myyg0GKmRt-1">
          <mxGeometry x="1010" y="1760" width="180" height="220" as="geometry" />
        </mxCell>
        <mxCell id="WLotTtnnPKLYBUlWbRt3-60" value="" style="endArrow=none;html=1;rounded=0;exitX=0.5;exitY=0;exitDx=0;exitDy=0;" edge="1" parent="iF3ojP-lR2Myyg0GKmRt-1" source="WLotTtnnPKLYBUlWbRt3-20">
          <mxGeometry width="50" height="50" relative="1" as="geometry">
            <mxPoint x="360" y="1577" as="sourcePoint" />
            <mxPoint x="480" y="1600" as="targetPoint" />
          </mxGeometry>
        </mxCell>
        <mxCell id="WLotTtnnPKLYBUlWbRt3-61" value="" style="endArrow=classic;html=1;rounded=0;exitX=1;exitY=0.5;exitDx=0;exitDy=0;" edge="1" parent="iF3ojP-lR2Myyg0GKmRt-1" source="WLotTtnnPKLYBUlWbRt3-11">
          <mxGeometry width="50" height="50" relative="1" as="geometry">
            <mxPoint x="720" y="1910" as="sourcePoint" />
            <mxPoint x="1000" y="1876" as="targetPoint" />
          </mxGeometry>
        </mxCell>
        <mxCell id="WLotTtnnPKLYBUlWbRt3-62" value="" style="endArrow=none;html=1;rounded=0;exitX=1;exitY=0.5;exitDx=0;exitDy=0;" edge="1" parent="iF3ojP-lR2Myyg0GKmRt-1" source="WLotTtnnPKLYBUlWbRt3-12">
          <mxGeometry width="50" height="50" relative="1" as="geometry">
            <mxPoint x="660" y="1940" as="sourcePoint" />
            <mxPoint x="800" y="1880" as="targetPoint" />
            <Array as="points">
              <mxPoint x="800" y="1986" />
            </Array>
          </mxGeometry>
        </mxCell>
        <mxCell id="WLotTtnnPKLYBUlWbRt3-63" value="" style="endArrow=none;html=1;rounded=0;exitX=1;exitY=0.5;exitDx=0;exitDy=0;" edge="1" parent="iF3ojP-lR2Myyg0GKmRt-1" source="WLotTtnnPKLYBUlWbRt3-10">
          <mxGeometry width="50" height="50" relative="1" as="geometry">
            <mxPoint x="710" y="1996" as="sourcePoint" />
            <mxPoint x="800" y="1880" as="targetPoint" />
            <Array as="points">
              <mxPoint x="800" y="1756" />
            </Array>
          </mxGeometry>
        </mxCell>
        <mxCell id="WLotTtnnPKLYBUlWbRt3-64" value="" style="endArrow=classic;html=1;rounded=0;exitX=0.5;exitY=1;exitDx=0;exitDy=0;" edge="1" parent="iF3ojP-lR2Myyg0GKmRt-1" source="WLotTtnnPKLYBUlWbRt3-24">
          <mxGeometry width="50" height="50" relative="1" as="geometry">
            <mxPoint x="610" y="1570" as="sourcePoint" />
            <mxPoint x="920" y="1870" as="targetPoint" />
          </mxGeometry>
        </mxCell>
        <mxCell id="WLotTtnnPKLYBUlWbRt3-65" value="" style="endArrow=classic;html=1;rounded=0;exitX=0.5;exitY=0;exitDx=0;exitDy=0;" edge="1" parent="iF3ojP-lR2Myyg0GKmRt-1" source="WLotTtnnPKLYBUlWbRt3-26">
          <mxGeometry width="50" height="50" relative="1" as="geometry">
            <mxPoint x="610" y="2380" as="sourcePoint" />
            <mxPoint x="920" y="1880" as="targetPoint" />
          </mxGeometry>
        </mxCell>
        <mxCell id="WLotTtnnPKLYBUlWbRt3-66" value="" style="endArrow=none;html=1;rounded=0;exitX=1;exitY=0.5;exitDx=0;exitDy=0;" edge="1" parent="iF3ojP-lR2Myyg0GKmRt-1" source="WLotTtnnPKLYBUlWbRt3-18">
          <mxGeometry width="50" height="50" relative="1" as="geometry">
            <mxPoint x="480" y="2130" as="sourcePoint" />
            <mxPoint x="680" y="2170" as="targetPoint" />
            <Array as="points">
              <mxPoint x="680" y="2080" />
            </Array>
          </mxGeometry>
        </mxCell>
        <mxCell id="WLotTtnnPKLYBUlWbRt3-67" value="" style="endArrow=none;html=1;rounded=0;exitX=1;exitY=0.5;exitDx=0;exitDy=0;" edge="1" parent="iF3ojP-lR2Myyg0GKmRt-1" source="WLotTtnnPKLYBUlWbRt3-16">
          <mxGeometry width="50" height="50" relative="1" as="geometry">
            <mxPoint x="550" y="2090" as="sourcePoint" />
            <mxPoint x="680" y="2170" as="targetPoint" />
            <Array as="points">
              <mxPoint x="680" y="2261" />
            </Array>
          </mxGeometry>
        </mxCell>
        <mxCell id="WLotTtnnPKLYBUlWbRt3-68" value="" style="endArrow=classic;html=1;rounded=0;exitX=1;exitY=0.5;exitDx=0;exitDy=0;" edge="1" parent="iF3ojP-lR2Myyg0GKmRt-1" source="WLotTtnnPKLYBUlWbRt3-17">
          <mxGeometry width="50" height="50" relative="1" as="geometry">
            <mxPoint x="480" y="2130" as="sourcePoint" />
            <mxPoint x="920" y="2170" as="targetPoint" />
          </mxGeometry>
        </mxCell>
        <mxCell id="WLotTtnnPKLYBUlWbRt3-69" value="" style="endArrow=none;html=1;rounded=0;exitX=1;exitY=0.5;exitDx=0;exitDy=0;" edge="1" parent="iF3ojP-lR2Myyg0GKmRt-1" source="WLotTtnnPKLYBUlWbRt3-21">
          <mxGeometry width="50" height="50" relative="1" as="geometry">
            <mxPoint x="543" y="1470" as="sourcePoint" />
            <mxPoint x="683" y="1560" as="targetPoint" />
            <Array as="points">
              <mxPoint x="683" y="1451" />
            </Array>
          </mxGeometry>
        </mxCell>
        <mxCell id="WLotTtnnPKLYBUlWbRt3-70" value="" style="endArrow=none;html=1;rounded=0;exitX=1;exitY=0.5;exitDx=0;exitDy=0;" edge="1" parent="iF3ojP-lR2Myyg0GKmRt-1" source="WLotTtnnPKLYBUlWbRt3-20">
          <mxGeometry width="50" height="50" relative="1" as="geometry">
            <mxPoint x="543" y="1651" as="sourcePoint" />
            <mxPoint x="683" y="1560" as="targetPoint" />
            <Array as="points">
              <mxPoint x="683" y="1661" />
            </Array>
          </mxGeometry>
        </mxCell>
        <mxCell id="WLotTtnnPKLYBUlWbRt3-71" value="" style="endArrow=classic;html=1;rounded=0;exitX=1;exitY=0.5;exitDx=0;exitDy=0;" edge="1" parent="iF3ojP-lR2Myyg0GKmRt-1">
          <mxGeometry width="50" height="50" relative="1" as="geometry">
            <mxPoint x="543" y="1560" as="sourcePoint" />
            <mxPoint x="920" y="1560" as="targetPoint" />
          </mxGeometry>
        </mxCell>
      </root>
    </mxGraphModel>
  </diagram>
</mxfile>
